<svg width="22" height="23" viewBox="0 0 22 23" fill="none" xmlns="http://www.w3.org/2000/svg">
<path d="M10.8527 8.00703C9.10274 8.00703 7.69188 9.48985 7.69188 11.2975C7.69188 13.1051 9.1163 14.5879 10.8527 14.5879C12.5892 14.5879 14.0136 13.1051 14.0136 11.2975C14.0136 9.48985 12.5892 8.00703 10.8527 8.00703ZM20.3489 11.2975C20.3489 9.92764 20.3489 8.58603 20.281 7.21619C20.2132 5.63451 19.8605 4.22229 18.7481 3.0784C17.6357 1.92038 16.2927 1.55321 14.7733 1.4826C13.4574 1.41199 12.1686 1.41199 10.8527 1.41199C9.53685 1.41199 8.24809 1.41199 6.93219 1.4826C5.41282 1.55321 4.05623 1.92038 2.95739 3.0784C1.84499 4.23641 1.49227 5.63451 1.42444 7.21619C1.35661 8.58603 1.35661 9.92764 1.35661 11.2975C1.35661 12.6673 1.35661 14.0089 1.42444 15.3788C1.49227 16.9605 1.84499 18.3727 2.95739 19.5166C4.06979 20.6746 5.41282 21.0418 6.93219 21.1124C8.24809 21.183 9.53685 21.183 10.8527 21.183C12.1686 21.183 13.4574 21.183 14.7733 21.1124C16.2927 21.0418 17.6492 20.6746 18.7481 19.5166C19.8605 18.3586 20.2132 16.9605 20.281 15.3788C20.3624 14.0231 20.3489 12.6673 20.3489 11.2975ZM10.8527 16.3673C8.15312 16.3673 5.98258 14.1078 5.98258 11.2975C5.98258 8.48718 8.15312 6.22764 10.8527 6.22764C13.5524 6.22764 15.7229 8.48718 15.7229 11.2975C15.7229 14.1078 13.5524 16.3673 10.8527 16.3673ZM15.9264 7.20206C15.3024 7.20206 14.7868 6.67954 14.7868 6.0158C14.7868 5.35206 15.2888 4.82954 15.9264 4.82954C16.564 4.82954 17.0659 5.35206 17.0659 6.0158C17.0693 6.17049 17.0422 6.32427 16.9862 6.46759C16.9302 6.61092 16.8465 6.74074 16.7403 6.84901C16.6363 6.95955 16.5116 7.04667 16.3739 7.10497C16.2363 7.16328 16.0885 7.19151 15.9399 7.18794L15.9264 7.20206Z" fill="white"/>
</svg>
